<svg width="115" height="24" viewBox="0 0 115 24" fill="none" xmlns="http://www.w3.org/2000/svg">
<path d="M5.4 23.32C3.672 23.32 2.34933 22.8293 1.432 21.848C0.514667 20.8667 0.056 19.48 0.056 17.688V5.912C0.056 4.12 0.514667 2.73333 1.432 1.752C2.34933 0.770665 3.672 0.279999 5.4 0.279999C7.128 0.279999 8.45067 0.770665 9.368 1.752C10.2853 2.73333 10.744 4.12 10.744 5.912V17.688C10.744 19.48 10.2853 20.8667 9.368 21.848C8.45067 22.8293 7.128 23.32 5.4 23.32ZM5.4 20.12C6.616 20.12 7.224 19.384 7.224 17.912V5.688C7.224 4.216 6.616 3.48 5.4 3.48C4.184 3.48 3.576 4.216 3.576 5.688V17.912C3.576 19.384 4.184 20.12 5.4 20.12ZM15.474 13.464L11.218 0.599998H14.962L17.362 8.824H17.426L19.826 0.599998H23.25L18.994 13.464V23H15.474V13.464ZM25.767 0.599998H30.535L34.183 23H30.663L30.023 18.552V18.616H26.023L25.383 23H22.119L25.767 0.599998ZM29.607 15.576L28.039 4.504H27.975L26.439 15.576H29.607ZM36.854 3.8H33.174V0.599998H44.054V3.8H40.374V23H36.854V3.8ZM45.4383 0.599998H48.9583V23H45.4383V0.599998ZM51.2745 0.599998H54.7945V19.8H60.5865V23H51.2745V0.599998ZM61.9545 0.599998H65.4745V19.8H71.2665V23H61.9545V0.599998ZM77.5975 23.32C75.8695 23.32 74.5468 22.8293 73.6295 21.848C72.7122 20.8667 72.2535 19.48 72.2535 17.688V5.912C72.2535 4.12 72.7122 2.73333 73.6295 1.752C74.5468 0.770665 75.8695 0.279999 77.5975 0.279999C79.3255 0.279999 80.6482 0.770665 81.5655 1.752C82.4828 2.73333 82.9415 4.12 82.9415 5.912V17.688C82.9415 19.48 82.4828 20.8667 81.5655 21.848C80.6482 22.8293 79.3255 23.32 77.5975 23.32ZM77.5975 20.12C78.8135 20.12 79.4215 19.384 79.4215 17.912V5.688C79.4215 4.216 78.8135 3.48 77.5975 3.48C76.3815 3.48 75.7735 4.216 75.7735 5.688V17.912C75.7735 19.384 76.3815 20.12 77.5975 20.12ZM85.002 0.599998H88.522V9.72H92.298V0.599998H95.818V23H92.298V12.92H88.522V23H85.002V0.599998ZM105.645 0.599998H110.413L114.061 23H110.541L109.901 18.552V18.616H105.901L105.261 23H101.997L105.645 0.599998ZM109.485 15.576L107.917 4.504H107.853L106.317 15.576H109.485Z" fill="#C7C7C7"/>
</svg>
